<svg width="140" viewBox="0 0 160 106" fill="none" xmlns="http://www.w3.org/2000/svg">
<circle cx="80" cy="32.1944" r="28.8924" fill="#ECEDFF"/>
<rect x="59.7139" y="24.8382" width="13.127" height="6.56348" rx="3.28174" fill="#A7B0FF"/>
<rect x="61.9642" y="21.744" width="13.127" height="6.56348" rx="3.28174" fill="#3D50FC"/>
<path fill-rule="evenodd" clip-rule="evenodd" d="M61.9643 25.0035C61.9642 25.0109 61.9642 25.0183 61.9642 25.0257C61.9642 26.8382 63.4335 28.3074 65.246 28.3074H71.8094C72.1697 28.3074 72.5164 28.2494 72.8408 28.1421C72.8408 28.1347 72.8408 28.1273 72.8408 28.1199C72.8408 26.3075 71.3715 24.8382 69.5591 24.8382H62.9956C62.6353 24.8382 62.2886 24.8963 61.9643 25.0035Z" fill="#1E32E0"/>
<rect x="76.3101" y="24.8382" width="20.6509" height="6.56348" rx="3.28174" fill="#A7B0FF"/>
<rect x="79.8502" y="21.744" width="20.6509" height="6.56348" rx="3.28174" fill="#3D50FC"/>
<path fill-rule="evenodd" clip-rule="evenodd" d="M79.8555 24.8382C79.852 24.9003 79.8502 24.9628 79.8502 25.0257C79.8502 26.8382 81.3195 28.3074 83.1319 28.3074H96.9557C96.9592 28.2454 96.961 28.1829 96.961 28.1199C96.961 26.3075 95.4917 24.8382 93.6793 24.8382H79.8555Z" fill="#1E32E0"/>
<rect x="63.0894" y="36.0898" width="24.9732" height="6.56348" rx="3.28174" fill="#A7B0FF"/>
<rect x="67.3705" y="32.9956" width="24.9732" height="6.56348" rx="3.28174" fill="#3D50FC"/>
<path fill-rule="evenodd" clip-rule="evenodd" d="M67.3758 36.0898C67.3723 36.1519 67.3705 36.2144 67.3705 36.2774C67.3705 38.0898 68.8398 39.5591 70.6522 39.5591H88.0573C88.0608 39.497 88.0626 39.4345 88.0626 39.3716C88.0626 37.5591 86.5933 36.0898 84.7809 36.0898H67.3758Z" fill="#1E32E0"/>
<path d="M30.0563 82.5314C30.1912 82.1462 30.4031 81.8573 30.692 81.6646C31.0002 81.472 31.3372 81.3757 31.7032 81.3757C32.1655 81.3757 32.5604 81.5202 32.8878 81.8091C33.2345 82.098 33.4079 82.4833 33.4079 82.9648C33.4079 83.1382 33.3597 83.3886 33.2634 83.716L27.0515 100.907C26.8974 101.292 26.6374 101.591 26.2714 101.803C25.9247 102.015 25.5395 102.12 25.1157 102.12C24.692 102.12 24.2971 102.015 23.9312 101.803C23.5652 101.591 23.3148 101.292 23.18 100.907L18.3838 87.2987L13.501 100.907C13.3469 101.292 13.0869 101.591 12.7209 101.803C12.3742 102.015 11.989 102.12 11.5652 102.12C11.1415 102.12 10.7466 102.015 10.3806 101.803C10.0339 101.591 9.79314 101.292 9.65831 100.907L3.44645 83.716C3.35014 83.4271 3.30199 83.1767 3.30199 82.9648C3.30199 82.4833 3.47534 82.098 3.82205 81.8091C4.18802 81.5202 4.61178 81.3757 5.09332 81.3757C5.47855 81.3757 5.82526 81.472 6.13344 81.6646C6.44163 81.8573 6.66314 82.1462 6.79797 82.5314L11.7097 96.6598L16.7658 82.6181C16.9007 82.2329 17.1222 81.9343 17.4304 81.7224C17.7386 81.4913 18.0756 81.3757 18.4416 81.3757C18.8076 81.3757 19.1446 81.4913 19.4528 81.7224C19.7803 81.9343 20.0114 82.2425 20.1463 82.647L25.058 96.8331L30.0563 82.5314Z" fill="#3D50FC"/>
<path d="M38.0697 102.092C37.5496 102.092 37.1162 101.947 36.7695 101.658C36.4421 101.35 36.2784 100.917 36.2784 100.358V89.2056C36.2784 88.647 36.4421 88.2232 36.7695 87.9343C37.1162 87.6454 37.5496 87.5009 38.0697 87.5009C38.5898 87.5009 39.0231 87.6454 39.3699 87.9343C39.7166 88.2232 39.8899 88.647 39.8899 89.2056V100.358C39.8899 100.917 39.7166 101.35 39.3699 101.658C39.0231 101.947 38.5898 102.092 38.0697 102.092ZM38.0697 84.9295C37.4148 84.9295 36.8947 84.7561 36.5095 84.4094C36.1243 84.0434 35.9317 83.5715 35.9317 82.9937C35.9317 82.4158 36.1243 81.9536 36.5095 81.6069C36.8947 81.2601 37.4148 81.0868 38.0697 81.0868C38.7053 81.0868 39.2158 81.2601 39.601 81.6069C40.0055 81.9536 40.2077 82.4158 40.2077 82.9937C40.2077 83.5715 40.0151 84.0434 39.6299 84.4094C39.2446 84.7561 38.7246 84.9295 38.0697 84.9295Z" fill="#3D50FC"/>
<path d="M51.5019 87.5009C52.0027 87.4624 52.3976 87.5683 52.6865 87.8187C52.9755 88.0691 53.1199 88.4447 53.1199 88.9455C53.1199 89.4656 52.9947 89.8508 52.7443 90.1012C52.4939 90.3516 52.0413 90.5153 51.3864 90.5924L50.5196 90.6791C49.3832 90.7946 48.5453 91.1799 48.006 91.8348C47.4859 92.4897 47.2259 93.3083 47.2259 94.2906V100.358C47.2259 100.917 47.0525 101.35 46.7058 101.658C46.3591 101.947 45.9257 102.092 45.4057 102.092C44.8856 102.092 44.4522 101.947 44.1055 101.658C43.778 101.35 43.6143 100.917 43.6143 100.358V89.1767C43.6143 88.6373 43.778 88.2232 44.1055 87.9343C44.4522 87.6454 44.876 87.5009 45.3768 87.5009C45.8776 87.5009 46.2821 87.6454 46.5902 87.9343C46.8984 88.204 47.0525 88.5988 47.0525 89.1189V90.2746C47.4185 89.4271 47.9578 88.7722 48.6705 88.3099C49.4024 87.8476 50.2114 87.5876 51.0975 87.5298L51.5019 87.5009Z" fill="#3D50FC"/>
<path d="M65.5739 98.0466C65.9013 98.0466 66.1614 98.1718 66.354 98.4222C66.5659 98.6726 66.6718 99.0097 66.6718 99.4335C66.6718 100.031 66.3155 100.531 65.6028 100.936C64.9479 101.302 64.2063 101.6 63.3781 101.832C62.5498 102.043 61.7601 102.149 61.0089 102.149C58.736 102.149 56.9351 101.494 55.606 100.185C54.277 98.8749 53.6124 97.0835 53.6124 94.8107C53.6124 93.3661 53.9014 92.0852 54.4792 90.968C55.0571 89.8508 55.866 88.984 56.9062 88.3677C57.9656 87.7513 59.1598 87.4431 60.4888 87.4431C61.7601 87.4431 62.8676 87.7224 63.8115 88.281C64.7553 88.8396 65.4872 89.6293 66.0073 90.6502C66.5273 91.671 66.7874 92.8749 66.7874 94.2617C66.7874 95.09 66.4214 95.5041 65.6895 95.5041H57.1662C57.2818 96.8331 57.6574 97.8155 58.293 98.4511C58.9286 99.0675 59.8532 99.3757 61.0667 99.3757C61.6831 99.3757 62.2224 99.2986 62.6847 99.1445C63.1662 98.9904 63.7055 98.7786 64.3026 98.5089C64.8805 98.2007 65.3042 98.0466 65.5739 98.0466ZM60.5755 89.9856C59.5932 89.9856 58.8034 90.2938 58.2063 90.9102C57.6285 91.5266 57.2818 92.4126 57.1662 93.5683H63.6959C63.6574 92.3933 63.3684 91.5073 62.8291 90.9102C62.2898 90.2938 61.5386 89.9856 60.5755 89.9856Z" fill="#3D50FC"/>
<path d="M76.7934 84.2361C75.9074 84.2938 75.2621 84.5635 74.8576 85.045C74.4531 85.5266 74.2509 86.22 74.2509 87.1253V87.7898H76.7067C77.7854 87.7898 78.3247 88.2425 78.3247 89.1478C78.3247 90.0531 77.7854 90.5057 76.7067 90.5057H74.2509V100.358C74.2509 100.917 74.0775 101.34 73.7308 101.629C73.4034 101.918 72.9796 102.063 72.4595 102.063C71.9395 102.063 71.5061 101.918 71.1594 101.629C70.8127 101.34 70.6393 100.917 70.6393 100.358V90.5057H69.1947C68.116 90.5057 67.5767 90.0531 67.5767 89.1478C67.5767 88.2425 68.116 87.7898 69.1947 87.7898H70.6393V87.5876C70.6393 85.777 71.1112 84.3613 72.055 83.3404C73.0181 82.3003 74.3664 81.7128 76.1 81.578L76.8512 81.5202C77.6216 81.4624 78.161 81.5491 78.4692 81.7802C78.7966 81.9921 78.9603 82.3292 78.9603 82.7914C78.9603 83.6197 78.4884 84.082 77.5446 84.1783L76.7934 84.2361Z" fill="#3D50FC"/>
<path d="M87.8996 87.5009C88.4004 87.4624 88.7952 87.5683 89.0842 87.8187C89.3731 88.0691 89.5176 88.4447 89.5176 88.9455C89.5176 89.4656 89.3924 89.8508 89.142 90.1012C88.8916 90.3516 88.4389 90.5153 87.784 90.5924L86.9172 90.6791C85.7808 90.7946 84.9429 91.1799 84.4036 91.8348C83.8835 92.4897 83.6235 93.3083 83.6235 94.2906V100.358C83.6235 100.917 83.4502 101.35 83.1034 101.658C82.7567 101.947 82.3234 102.092 81.8033 102.092C81.2832 102.092 80.8498 101.947 80.5031 101.658C80.1757 101.35 80.012 100.917 80.012 100.358V89.1767C80.012 88.6373 80.1757 88.2232 80.5031 87.9343C80.8498 87.6454 81.2736 87.5009 81.7744 87.5009C82.2752 87.5009 82.6797 87.6454 82.9879 87.9343C83.2961 88.204 83.4502 88.5988 83.4502 89.1189V90.2746C83.8161 89.4271 84.3555 88.7722 85.0681 88.3099C85.8001 87.8476 86.6091 87.5876 87.4951 87.5298L87.8996 87.5009Z" fill="#3D50FC"/>
<path d="M97.1411 87.4431C99.1058 87.4431 100.56 87.9343 101.504 88.9166C102.467 89.8797 102.948 91.3532 102.948 93.3372V100.387C102.948 100.907 102.794 101.321 102.486 101.629C102.178 101.918 101.754 102.063 101.215 102.063C100.714 102.063 100.3 101.909 99.9725 101.6C99.6644 101.292 99.5103 100.888 99.5103 100.387V99.7513C99.1828 100.502 98.6628 101.09 97.9501 101.514C97.2567 101.937 96.4477 102.149 95.5231 102.149C94.5793 102.149 93.7222 101.957 92.9517 101.571C92.1812 101.186 91.5745 100.657 91.1315 99.9824C90.6885 99.3083 90.4669 98.5571 90.4669 97.7288C90.4669 96.6887 90.727 95.8701 91.247 95.273C91.7864 94.6758 92.6531 94.2425 93.8474 93.9728C95.0416 93.7031 96.6884 93.5683 98.788 93.5683H99.5103V92.9038C99.5103 91.96 99.308 91.2762 98.9035 90.8524C98.499 90.4094 97.8441 90.1879 96.9388 90.1879C96.3803 90.1879 95.812 90.2746 95.2342 90.4479C94.6563 90.602 93.9726 90.8332 93.1828 91.1413C92.682 91.3917 92.3161 91.5169 92.0849 91.5169C91.7382 91.5169 91.4493 91.3917 91.2181 91.1413C91.0063 90.8909 90.9003 90.5635 90.9003 90.159C90.9003 89.8316 90.9774 89.5523 91.1315 89.3211C91.3048 89.0707 91.5841 88.8396 91.9693 88.6277C92.6435 88.2617 93.4429 87.9728 94.3674 87.7609C95.3112 87.5491 96.2358 87.4431 97.1411 87.4431ZM96.2454 99.549C97.2085 99.549 97.9886 99.2312 98.5857 98.5956C99.2021 97.9407 99.5103 97.1028 99.5103 96.0819V95.4752H98.9902C97.6997 95.4752 96.6981 95.533 95.9854 95.6486C95.2727 95.7641 94.7623 95.9664 94.4541 96.2553C94.1459 96.5442 93.9918 96.9391 93.9918 97.4399C93.9918 98.0563 94.2037 98.5667 94.6275 98.9712C95.0705 99.3564 95.6098 99.549 96.2454 99.549Z" fill="#3D50FC"/>
<path d="M123.405 87.4431C124.946 87.4431 126.121 87.9054 126.93 88.83C127.759 89.7352 128.173 91.2088 128.173 93.2505V100.358C128.173 100.917 127.999 101.35 127.653 101.658C127.325 101.947 126.892 102.092 126.352 102.092C125.832 102.092 125.399 101.947 125.052 101.658C124.725 101.35 124.561 100.917 124.561 100.358V93.2505C124.561 92.1911 124.368 91.4399 123.983 90.9969C123.617 90.5346 123.049 90.3035 122.279 90.3035C121.335 90.3035 120.584 90.6309 120.025 91.2858C119.466 91.9214 119.187 92.7978 119.187 93.915V100.358C119.187 100.917 119.014 101.35 118.667 101.658C118.34 101.947 117.916 102.092 117.396 102.092C116.876 102.092 116.442 101.947 116.096 101.658C115.749 101.35 115.576 100.917 115.576 100.358V93.2505C115.576 92.1911 115.383 91.4399 114.998 90.9969C114.632 90.5346 114.064 90.3035 113.293 90.3035C112.349 90.3035 111.598 90.6309 111.039 91.2858C110.5 91.9214 110.23 92.7978 110.23 93.915V100.358C110.23 100.917 110.057 101.35 109.71 101.658C109.364 101.947 108.93 102.092 108.41 102.092C107.89 102.092 107.457 101.947 107.11 101.658C106.783 101.35 106.619 100.917 106.619 100.358V89.1767C106.619 88.6373 106.792 88.2232 107.139 87.9343C107.486 87.6454 107.919 87.5009 108.439 87.5009C108.94 87.5009 109.344 87.6454 109.653 87.9343C109.98 88.204 110.144 88.5988 110.144 89.1189V89.8123C110.587 89.0418 111.174 88.4544 111.906 88.0499C112.657 87.6454 113.515 87.4431 114.478 87.4431C116.596 87.4431 118.012 88.3292 118.725 90.1012C119.149 89.2922 119.775 88.647 120.603 88.1654C121.431 87.6839 122.365 87.4431 123.405 87.4431Z" fill="#3D50FC"/>
<path d="M143.025 98.0466C143.352 98.0466 143.612 98.1718 143.805 98.4222C144.017 98.6726 144.123 99.0097 144.123 99.4335C144.123 100.031 143.766 100.531 143.054 100.936C142.399 101.302 141.657 101.6 140.829 101.832C140.001 102.043 139.211 102.149 138.46 102.149C136.187 102.149 134.386 101.494 133.057 100.185C131.728 98.8749 131.063 97.0835 131.063 94.8107C131.063 93.3661 131.352 92.0852 131.93 90.968C132.508 89.8508 133.317 88.984 134.357 88.3677C135.416 87.7513 136.611 87.4431 137.94 87.4431C139.211 87.4431 140.318 87.7224 141.262 88.281C142.206 88.8396 142.938 89.6293 143.458 90.6502C143.978 91.671 144.238 92.8749 144.238 94.2617C144.238 95.09 143.872 95.5041 143.14 95.5041H134.617C134.733 96.8331 135.108 97.8155 135.744 98.4511C136.379 99.0675 137.304 99.3757 138.517 99.3757C139.134 99.3757 139.673 99.2986 140.135 99.1445C140.617 98.9904 141.156 98.7786 141.753 98.5089C142.331 98.2007 142.755 98.0466 143.025 98.0466ZM138.026 89.9856C137.044 89.9856 136.254 90.2938 135.657 90.9102C135.079 91.5266 134.733 92.4126 134.617 93.5683H141.147C141.108 92.3933 140.819 91.5073 140.28 90.9102C139.741 90.2938 138.989 89.9856 138.026 89.9856Z" fill="#3D50FC"/>
<path d="M155.08 87.5009C155.581 87.4624 155.976 87.5683 156.265 87.8187C156.554 88.0691 156.698 88.4447 156.698 88.9455C156.698 89.4656 156.573 89.8508 156.322 90.1012C156.072 90.3516 155.619 90.5153 154.964 90.5924L154.098 90.6791C152.961 90.7946 152.123 91.1799 151.584 91.8348C151.064 92.4897 150.804 93.3083 150.804 94.2906V100.358C150.804 100.917 150.631 101.35 150.284 101.658C149.937 101.947 149.504 102.092 148.984 102.092C148.464 102.092 148.03 101.947 147.684 101.658C147.356 101.35 147.192 100.917 147.192 100.358V89.1767C147.192 88.6373 147.356 88.2232 147.684 87.9343C148.03 87.6454 148.454 87.5009 148.955 87.5009C149.456 87.5009 149.86 87.6454 150.168 87.9343C150.477 88.204 150.631 88.5988 150.631 89.1189V90.2746C150.997 89.4271 151.536 88.7722 152.249 88.3099C152.981 87.8476 153.79 87.5876 154.676 87.5298L155.08 87.5009Z" fill="#3D50FC"/>
</svg>
